<svg width="40" height="40" viewBox="0 0 40 40" fill="none" xmlns="http://www.w3.org/2000/svg">
<path d="M20.0004 0L24.1729 2.16L28.8179 2.865L30.9229 7.065L34.2654 10.365L33.5004 15L34.2654 19.635L30.9229 22.935L28.8179 27.135L24.1729 27.84L20.0004 30L15.8279 27.84L11.1829 27.135L9.07785 22.935L5.73535 19.635L6.50035 15L5.73535 10.365L9.07785 7.065L11.1829 2.865L15.8279 2.16L20.0004 0Z" fill="white"/>
<path d="M10 29.4849V39.9999L20 37.4999L30 39.9999V29.4849L24.955 30.2499L20 32.8149L15.045 30.2499L10 29.4849Z" fill="white"/>
</svg>
