<svg width="40" height="40" viewBox="0 0 40 40" fill="none" xmlns="http://www.w3.org/2000/svg">
<path fill-rule="evenodd" clip-rule="evenodd" d="M0 31.2499C0 32.2444 0.395088 33.1983 1.09835 33.9015C1.80161 34.6048 2.75544 34.9999 3.75 34.9999H36.25C37.2446 34.9999 38.1984 34.6048 38.9016 33.9015C39.6049 33.1983 40 32.2444 40 31.2499V17.1249L20.3225 22.3674C20.1112 22.4238 19.8888 22.4238 19.6775 22.3674L0 17.1249V31.2499Z" fill="white"/>
<path fill-rule="evenodd" clip-rule="evenodd" d="M0 11.25C0 10.2554 0.395088 9.30161 1.09835 8.59835C1.80161 7.89509 2.75544 7.5 3.75 7.5H36.25C37.2446 7.5 38.1984 7.89509 38.9016 8.59835C39.6049 9.30161 40 10.2554 40 11.25V14.71L20.965 19.785C20.3327 19.9534 19.6673 19.9534 19.035 19.785L0 14.71V11.25ZM12.5 6.25C12.5 5.25544 12.8951 4.30161 13.5983 3.59835C14.3016 2.89509 15.2554 2.5 16.25 2.5H23.75C24.7446 2.5 25.6984 2.89509 26.4017 3.59835C27.1049 4.30161 27.5 5.25544 27.5 6.25V7.5H25V6.25C25 5.91848 24.8683 5.60054 24.6339 5.36612C24.3995 5.1317 24.0815 5 23.75 5H16.25C15.9185 5 15.6005 5.1317 15.3661 5.36612C15.1317 5.60054 15 5.91848 15 6.25V7.5H12.5V6.25Z" fill="white"/>
</svg>
