<svg width="40" height="36" viewBox="0 0 40 36" fill="none" xmlns="http://www.w3.org/2000/svg">
<path d="M35.3778 2.43984C34.9222 1.14537 33.6778 0.223877 32.2222 0.223877H7.77778C6.32222 0.223877 5.07778 1.14537 4.62222 2.43984L0 15.582V33.1342C0 34.3409 1 35.3282 2.22222 35.3282H4.44444C5.67778 35.3282 6.66667 34.3409 6.66667 33.1342V30.9402H33.3333V33.1342C33.3333 34.3409 34.3333 35.3282 35.5556 35.3282H37.7778C39.0111 35.3282 40 34.3409 40 33.1342V15.582L35.3778 2.43984ZM7.77778 24.3581C5.93333 24.3581 4.44444 22.8881 4.44444 21.0671C4.44444 19.246 5.93333 17.776 7.77778 17.776C9.62222 17.776 11.1111 19.246 11.1111 21.0671C11.1111 22.8881 9.62222 24.3581 7.77778 24.3581ZM32.2222 24.3581C30.3778 24.3581 28.8889 22.8881 28.8889 21.0671C28.8889 19.246 30.3778 17.776 32.2222 17.776C34.0667 17.776 35.5556 19.246 35.5556 21.0671C35.5556 22.8881 34.0667 24.3581 32.2222 24.3581ZM4.44444 13.388L7.77778 3.51491H32.2222L35.5556 13.388H4.44444Z" fill="white"/>
</svg>
