<svg width="40" height="40" viewBox="0 0 40 40" fill="none" xmlns="http://www.w3.org/2000/svg">
<g clip-path="url(#clip0_1455_8566)">
<path fill-rule="evenodd" clip-rule="evenodd" d="M20 37.5399C24.3098 37.5399 28.443 35.8279 31.4905 32.7804C34.538 29.7329 36.25 25.5997 36.25 21.2899C36.25 16.9801 34.538 12.8469 31.4905 9.79943C28.443 6.75197 24.3098 5.03992 20 5.03992C15.6902 5.03992 11.557 6.75197 8.50951 9.79943C5.46205 12.8469 3.75 16.9801 3.75 21.2899C3.75 25.5997 5.46205 29.7329 8.50951 32.7804C11.557 35.8279 15.6902 37.5399 20 37.5399ZM20 40.0399C24.9728 40.0399 29.7419 38.0645 33.2583 34.5482C36.7746 31.0319 38.75 26.2627 38.75 21.2899C38.75 16.3171 36.7746 11.548 33.2583 8.03166C29.7419 4.51536 24.9728 2.53992 20 2.53992C15.0272 2.53992 10.2581 4.51536 6.74175 8.03166C3.22544 11.548 1.25 16.3171 1.25 21.2899C1.25 26.2627 3.22544 31.0319 6.74175 34.5482C10.2581 38.0645 15.0272 40.0399 20 40.0399Z" fill="white"/>
<path d="M15.0004 2.5C15.0004 1.83696 15.2638 1.20107 15.7326 0.732233C16.2015 0.263392 16.8373 0 17.5004 0L22.5004 0C23.1634 0 23.7993 0.263392 24.2682 0.732233C24.737 1.20107 25.0004 1.83696 25.0004 2.5C25.0004 3.16304 24.737 3.79893 24.2682 4.26777C23.7993 4.73661 23.1634 5 22.5004 5H17.5004C16.8373 5 16.2015 4.73661 15.7326 4.26777C15.2638 3.79893 15.0004 3.16304 15.0004 2.5ZM17.3504 18.6L29.7254 11.525L22.6504 23.9L10.2754 30.975L17.3504 18.6Z" fill="white"/>
</g>
<defs>
<clipPath id="clip0_1455_8566">
<rect width="40" height="40" fill="white"/>
</clipPath>
</defs>
</svg>
