<svg width="50" height="50" viewBox="0 0 50 50" fill="none" xmlns="http://www.w3.org/2000/svg">
<path d="M12.5 3.125H28.125V6.25H12.5C11.6712 6.25 10.8763 6.57924 10.2903 7.16529C9.70424 7.75134 9.375 8.5462 9.375 9.375V40.625C9.375 41.4538 9.70424 42.2487 10.2903 42.8347C10.8763 43.4208 11.6712 43.75 12.5 43.75H37.5C38.3288 43.75 39.1237 43.4208 39.7097 42.8347C40.2958 42.2487 40.625 41.4538 40.625 40.625V18.75H43.75V40.625C43.75 42.2826 43.0915 43.8723 41.9194 45.0444C40.7473 46.2165 39.1576 46.875 37.5 46.875H12.5C10.8424 46.875 9.25268 46.2165 8.08058 45.0444C6.90848 43.8723 6.25 42.2826 6.25 40.625V9.375C6.25 7.7174 6.90848 6.12769 8.08058 4.95558C9.25268 3.78348 10.8424 3.125 12.5 3.125Z" fill="#333333"/>
<path d="M28.125 14.0625V3.125L43.75 18.75H32.8125C31.5693 18.75 30.377 18.2561 29.4979 17.3771C28.6189 16.498 28.125 15.3057 28.125 14.0625Z" fill="#333333"/>
<path fill-rule="evenodd" clip-rule="evenodd" d="M17.6441 28.5812C17.7892 28.4357 17.9617 28.3203 18.1515 28.2415C18.3413 28.1627 18.5448 28.1222 18.7504 28.1222C18.9559 28.1222 19.1594 28.1627 19.3492 28.2415C19.539 28.3203 19.7115 28.4357 19.8566 28.5812L25.0004 33.7281L30.1441 28.5812C30.4375 28.2878 30.8354 28.123 31.2504 28.123C31.6653 28.123 32.0632 28.2878 32.3566 28.5812C32.65 28.8746 32.8148 29.2726 32.8148 29.6875C32.8148 30.1024 32.65 30.5003 32.3566 30.7937L26.1066 37.0437C25.9615 37.1892 25.789 37.3047 25.5992 37.3835C25.4094 37.4622 25.2059 37.5028 25.0004 37.5028C24.7948 37.5028 24.5913 37.4622 24.4015 37.3835C24.2117 37.3047 24.0392 37.1892 23.8941 37.0437L17.6441 30.7937C17.4986 30.6486 17.3831 30.4762 17.3044 30.2863C17.2256 30.0965 17.1851 29.893 17.1851 29.6875C17.1851 29.482 17.2256 29.2785 17.3044 29.0886C17.3831 28.8988 17.4986 28.7264 17.6441 28.5812Z" fill="#333333"/>
<path fill-rule="evenodd" clip-rule="evenodd" d="M25 18.75C25.4144 18.75 25.8118 18.9146 26.1049 19.2076C26.3979 19.5007 26.5625 19.8981 26.5625 20.3125V32.8125C26.5625 33.2269 26.3979 33.6243 26.1049 33.9174C25.8118 34.2104 25.4144 34.375 25 34.375C24.5856 34.375 24.1882 34.2104 23.8951 33.9174C23.6021 33.6243 23.4375 33.2269 23.4375 32.8125V20.3125C23.4375 19.8981 23.6021 19.5007 23.8951 19.2076C24.1882 18.9146 24.5856 18.75 25 18.75Z" fill="#333333"/>
</svg>
