<svg width="30" height="30" viewBox="0 0 30 30" fill="none" xmlns="http://www.w3.org/2000/svg">
<path fill-rule="evenodd" clip-rule="evenodd" d="M25.2195 14.9997C25.2197 15.123 25.1955 15.2452 25.1484 15.3591C25.1013 15.4731 25.0321 15.5766 24.945 15.6638C24.8578 15.751 24.7542 15.8202 24.6403 15.8673C24.5263 15.9144 24.4042 15.9386 24.2809 15.9384L5.7193 15.9384C5.47035 15.9384 5.23159 15.8395 5.05555 15.6635C4.87952 15.4874 4.78062 15.2487 4.78062 14.9997C4.78062 14.7508 4.87952 14.512 5.05555 14.336C5.23159 14.1599 5.47035 14.061 5.7193 14.061L24.2809 14.061C24.4042 14.0609 24.5263 14.0851 24.6403 14.1322C24.7542 14.1793 24.8578 14.2484 24.945 14.3356C25.0321 14.4228 25.1013 14.5264 25.1484 14.6403C25.1955 14.7543 25.2197 14.8764 25.2195 14.9997Z" fill="#666666"/>
</svg>
