<svg width="40" height="26" viewBox="0 0 40 26" fill="none" xmlns="http://www.w3.org/2000/svg">
<path d="M36.3636 9.40987C34.3545 9.40987 32.7273 11.0165 32.7273 13V18.3853H7.27273V13C7.27273 11.0165 5.64545 9.40987 3.63636 9.40987C1.62727 9.40987 0 11.0165 0 13V21.9755C0 23.9501 1.63636 25.5656 3.63636 25.5656H36.3636C38.3636 25.5656 40 23.9501 40 21.9755V13C40 11.0165 38.3727 9.40987 36.3636 9.40987ZM30.9091 0.434448H9.09091C7.09091 0.434448 5.45455 2.05002 5.45455 4.02462V7.89302C7.56364 8.63798 9.09091 10.6126 9.09091 12.9462V16.5902H30.9091V12.9462C30.9091 10.6126 32.4364 8.63798 34.5455 7.89302V4.02462C34.5455 2.05002 32.9091 0.434448 30.9091 0.434448Z" fill="white"/>
</svg>
