<svg width="35" height="35" viewBox="0 0 35 35" fill="none" xmlns="http://www.w3.org/2000/svg">
<ellipse cx="17.5" cy="17.5" rx="15.3125" ry="15.3125" fill="url(#paint0_linear_208_493)"/>
<path d="M25.1416 11.1659C25.2779 10.2849 24.4403 9.58951 23.657 9.93343L8.05527 16.7834C7.49353 17.0301 7.53462 17.8809 8.11723 18.0664L11.3347 19.0911C11.9488 19.2866 12.6137 19.1855 13.1499 18.815L20.4039 13.8034C20.6226 13.6523 20.8611 13.9633 20.6742 14.156L15.4526 19.5395C14.9461 20.0617 15.0466 20.9466 15.6559 21.3286L21.502 24.9947C22.1577 25.4059 23.0012 24.9928 23.1239 24.2005L25.1416 11.1659Z" fill="white"/>
<defs>
<linearGradient id="paint0_linear_208_493" x1="17.5" y1="2.1875" x2="17.5" y2="32.8125" gradientUnits="userSpaceOnUse">
<stop stop-color="#37BBFE"/>
<stop offset="1" stop-color="#007DBB"/>
</linearGradient>
</defs>
</svg>
