<svg width="15" height="22" viewBox="0 0 15 22" fill="none" xmlns="http://www.w3.org/2000/svg">
<path d="M12.453 12.6029L3.65954 19.6344C2.62332 20.4642 1 19.7898 1 18.5304V4.46738C0.999736 4.18553 1.08836 3.90958 1.25527 3.67258C1.42218 3.43558 1.66029 3.24758 1.9411 3.13108C2.2219 3.01459 2.53349 2.97455 2.83855 3.01575C3.14361 3.05695 3.42921 3.17765 3.66115 3.36339L12.4514 10.3949C12.6237 10.5325 12.7618 10.7022 12.8564 10.8927C12.951 11.0831 13 11.2898 13 11.4989C13 11.708 12.951 11.9147 12.8564 12.1052C12.7618 12.2956 12.6237 12.4653 12.4514 12.6029H12.453Z" fill="white"/>
</svg>
