<svg width="12" height="17" viewBox="0 0 12 17" fill="none" xmlns="http://www.w3.org/2000/svg">
<path d="M11.453 9.6029L2.65954 16.6344C1.62332 17.4642 5.89825e-07 16.7898 5.89825e-07 15.5304V1.46738C-0.000263804 1.18553 0.0883646 0.909577 0.255273 0.672578C0.422181 0.435579 0.660294 0.247576 0.941096 0.131084C1.2219 0.0145921 1.53349 -0.0254513 1.83855 0.0157494C2.14361 0.0569502 2.42921 0.177648 2.66115 0.36339L11.4514 7.39492C11.6237 7.53253 11.7618 7.70224 11.8564 7.89265C11.951 8.08307 12 8.28978 12 8.49891C12 8.70804 11.951 8.91475 11.8564 9.10516C11.7618 9.29558 11.6237 9.46528 11.4514 9.6029H11.453Z" fill="white"/>
</svg>
