<svg width="12" height="17" viewBox="0 0 12 17" fill="none" xmlns="http://www.w3.org/2000/svg">
<path fill-rule="evenodd" clip-rule="evenodd" d="M1.60407 15.5326L10.396 8.50109L1.60407 1.46957V15.5326V15.5326ZM2.66115 16.6366L11.4514 9.60508C11.6237 9.46747 11.7618 9.29776 11.8564 9.10735C11.951 8.91694 12 8.71022 12 8.50109C12 8.29196 11.951 8.08525 11.8564 7.89484C11.7618 7.70443 11.6237 7.53472 11.4514 7.3971L2.66275 0.365579C1.62171 -0.464247 5.89825e-07 0.21017 5.89825e-07 1.46957V15.5326C-0.000263804 15.8145 0.0883646 16.0904 0.255273 16.3274C0.422181 16.5644 0.660294 16.7524 0.941096 16.8689C1.2219 16.9854 1.53349 17.0255 1.83855 16.9843C2.14361 16.9431 2.42921 16.8224 2.66115 16.6366V16.6366Z" fill="white"/>
</svg>
