<svg width="24" height="24" viewBox="0 0 24 24" fill="none" xmlns="http://www.w3.org/2000/svg">
<path fill-rule="evenodd" clip-rule="evenodd" d="M6.00001 21.4995V18.7095C5.05491 17.8661 4.29899 16.8322 3.78194 15.6758C3.26489 14.5194 2.9984 13.2667 3.00001 12C3.00001 9.3345 4.15801 6.939 6.00001 5.292V2.5005C6.00001 1.1205 7.11901 0 8.50051 0H15.4995C16.8795 0 18 1.119 18 2.5005V5.2905C18.9451 6.13392 19.701 7.16779 20.2181 8.32418C20.7351 9.48057 21.0016 10.7333 21 12C21.0014 13.2665 20.7348 14.5189 20.2178 15.675C19.7007 16.8311 18.9449 17.8647 18 18.708V21.4995C18 22.8795 16.881 24 15.4995 24H8.50051C7.12051 24 6.00001 22.881 6.00001 21.4995ZM19.5 12C19.5 10.0109 18.7098 8.10322 17.3033 6.6967C15.8968 5.29018 13.9891 4.5 12 4.5C10.0109 4.5 8.10323 5.29018 6.69671 6.6967C5.29018 8.10322 4.50001 10.0109 4.50001 12C4.50001 13.9891 5.29018 15.8968 6.69671 17.3033C8.10323 18.7098 10.0109 19.5 12 19.5C13.9891 19.5 15.8968 18.7098 17.3033 17.3033C18.7098 15.8968 19.5 13.9891 19.5 12Z" fill="#333333"/>
<path d="M21.75 11.25C21.75 10.8358 21.4142 10.5 21 10.5C20.5858 10.5 20.25 10.8358 20.25 11.25V12.75C20.25 13.1642 20.5858 13.5 21 13.5C21.4142 13.5 21.75 13.1642 21.75 12.75V11.25Z" fill="#333333"/>
<path fill-rule="evenodd" clip-rule="evenodd" d="M12 6.75C12.1989 6.75 12.3897 6.82902 12.5303 6.96967C12.671 7.11032 12.75 7.30109 12.75 7.5V12C12.75 12.1989 12.671 12.3897 12.5303 12.5303C12.3897 12.671 12.1989 12.75 12 12.75H9C8.80109 12.75 8.61032 12.671 8.46967 12.5303C8.32902 12.3897 8.25 12.1989 8.25 12C8.25 11.8011 8.32902 11.6103 8.46967 11.4697C8.61032 11.329 8.80109 11.25 9 11.25H11.25V7.5C11.25 7.30109 11.329 7.11032 11.4697 6.96967C11.6103 6.82902 11.8011 6.75 12 6.75Z" fill="#333333"/>
</svg>
