<svg width="36" height="35" viewBox="0 0 36 35" fill="none" xmlns="http://www.w3.org/2000/svg">
<path fill-rule="evenodd" clip-rule="evenodd" d="M17.6299 33.9062C26.0867 33.9062 32.9424 27.0506 32.9424 18.5938C32.9424 10.1369 26.0867 3.28125 17.6299 3.28125C9.17302 3.28125 2.31738 10.1369 2.31738 18.5938C2.31738 21.34 3.04035 23.9174 4.30634 26.1461L2.31738 33.9062L10.318 32.051C12.4908 33.2341 14.9818 33.9062 17.6299 33.9062ZM17.6299 31.5505C24.7857 31.5505 30.5866 25.7496 30.5866 18.5938C30.5866 11.4379 24.7857 5.63702 17.6299 5.63702C10.4741 5.63702 4.67315 11.4379 4.67315 18.5938C4.67315 21.3566 5.53793 23.9175 7.01158 26.0205L5.85104 30.3726L10.2798 29.2654C12.3682 30.7066 14.9005 31.5505 17.6299 31.5505Z" fill="#BFC8D0"/>
<path d="M30.7549 17.5C30.7549 24.7487 24.8786 30.625 17.6299 30.625C14.8651 30.625 12.2999 29.7701 10.1844 28.3102L5.69806 29.4318L6.87368 25.0233C5.38089 22.8929 4.50488 20.2988 4.50488 17.5C4.50488 10.2513 10.3811 4.375 17.6299 4.375C24.8786 4.375 30.7549 10.2513 30.7549 17.5Z" fill="url(#paint0_linear_208_496)"/>
<path fill-rule="evenodd" clip-rule="evenodd" d="M17.6299 32.8125C26.0867 32.8125 32.9424 25.9569 32.9424 17.5C32.9424 9.04314 26.0867 2.1875 17.6299 2.1875C9.17302 2.1875 2.31738 9.04314 2.31738 17.5C2.31738 20.2463 3.04035 22.8237 4.30634 25.0523L2.31738 32.8125L10.318 30.9573C12.4908 32.1403 14.9818 32.8125 17.6299 32.8125ZM17.6299 30.4567C24.7857 30.4567 30.5866 24.6558 30.5866 17.5C30.5866 10.3442 24.7857 4.54327 17.6299 4.54327C10.4741 4.54327 4.67315 10.3442 4.67315 17.5C4.67315 20.2629 5.53793 22.8238 7.01158 24.9268L5.85104 29.2788L10.2798 28.1717C12.3682 29.6128 14.9005 30.4567 17.6299 30.4567Z" fill="white"/>
<path d="M13.8018 10.3906C13.4377 9.65938 12.8792 9.72412 12.315 9.72412C11.3067 9.72412 9.73437 10.9319 9.73438 13.1798C9.73438 15.022 10.5462 17.0386 13.2816 20.0553C15.9215 22.9666 19.3901 24.4726 22.2698 24.4213C25.1494 24.3701 25.7419 21.892 25.7419 21.0552C25.7419 20.6843 25.5117 20.4992 25.3531 20.4489C24.3718 19.978 22.562 19.1005 22.1502 18.9356C21.7383 18.7707 21.5233 18.9937 21.3897 19.115C21.0162 19.4709 20.2759 20.5197 20.0225 20.7556C19.769 20.9916 19.3911 20.8722 19.2339 20.783C18.6552 20.5508 17.0862 19.8529 15.8356 18.6405C14.2888 17.1411 14.1981 16.6253 13.9066 16.1661C13.6735 15.7988 13.8446 15.5734 13.93 15.4749C14.2632 15.0903 14.7234 14.4967 14.9297 14.2017C15.1361 13.9067 14.9722 13.4588 14.874 13.1798C14.4512 11.98 14.093 10.9756 13.8018 10.3906Z" fill="white"/>
<defs>
<linearGradient id="paint0_linear_208_496" x1="29.1143" y1="7.65625" x2="4.50488" y2="30.625" gradientUnits="userSpaceOnUse">
<stop stop-color="#5BD066"/>
<stop offset="1" stop-color="#27B43E"/>
</linearGradient>
</defs>
</svg>
