<svg width="30" height="30" viewBox="0 0 30 30" fill="none" xmlns="http://www.w3.org/2000/svg">
<path fill-rule="evenodd" clip-rule="evenodd" d="M15 4.78061C15.1233 4.78046 15.2454 4.80463 15.3594 4.85175C15.4733 4.89887 15.5769 4.968 15.6641 5.0552C15.7513 5.1424 15.8204 5.24594 15.8675 5.35989C15.9146 5.47385 15.9388 5.59598 15.9387 5.7193L15.9387 24.2808C15.9387 24.5298 15.8398 24.7686 15.6637 24.9446C15.4877 25.1206 15.2489 25.2195 15 25.2195C14.751 25.2195 14.5123 25.1206 14.3362 24.9446C14.1602 24.7686 14.0613 24.5298 14.0613 24.2808L14.0613 5.7193C14.0611 5.59598 14.0853 5.47385 14.1324 5.35989C14.1796 5.24594 14.2487 5.1424 14.3359 5.0552C14.4231 4.968 14.5266 4.89887 14.6406 4.85175C14.7545 4.80463 14.8767 4.78046 15 4.78061Z" fill="#666666"/>
<path fill-rule="evenodd" clip-rule="evenodd" d="M4.78087 14.9997C4.78071 15.123 4.80489 15.2452 4.852 15.3591C4.89912 15.4731 4.96826 15.5766 5.05546 15.6638C5.14265 15.751 5.24619 15.8202 5.36015 15.8673C5.47411 15.9144 5.59624 15.9386 5.71955 15.9384L24.2811 15.9384C24.5301 15.9384 24.7688 15.8395 24.9449 15.6635C25.1209 15.4874 25.2198 15.2487 25.2198 14.9997C25.2198 14.7508 25.1209 14.512 24.9449 14.336C24.7688 14.1599 24.5301 14.061 24.2811 14.061L5.71955 14.061C5.59624 14.0609 5.47411 14.0851 5.36015 14.1322C5.24619 14.1793 5.14265 14.2484 5.05546 14.3356C4.96826 14.4228 4.89912 14.5264 4.852 14.6403C4.80489 14.7543 4.78071 14.8764 4.78087 14.9997Z" fill="#666666"/>
</svg>
